<svg id="visual" viewBox="0 0 900 600" width="900" height="600" xmlns="http://www.w3.org/2000/svg" xmlns:xlink="http://www.w3.org/1999/xlink" version="1.1"><rect x="0" y="0" width="900" height="600" fill="#FFFFFF"></rect><path d="M0 381L21.5 386.5C43 392 86 403 128.8 413C171.7 423 214.3 432 257.2 437.2C300 442.3 343 443.7 385.8 440.7C428.7 437.7 471.3 430.3 514.2 418.2C557 406 600 389 642.8 387.3C685.7 385.7 728.3 399.3 771.2 409.8C814 420.3 857 427.7 878.5 431.3L900 435L900 601L878.5 601C857 601 814 601 771.2 601C728.3 601 685.7 601 642.8 601C600 601 557 601 514.2 601C471.3 601 428.7 601 385.8 601C343 601 300 601 257.2 601C214.3 601 171.7 601 128.8 601C86 601 43 601 21.5 601L0 601Z" fill="#ff5a4f"></path><path d="M0 444L21.5 441.2C43 438.3 86 432.7 128.8 425.7C171.7 418.7 214.3 410.3 257.2 411.5C300 412.7 343 423.3 385.8 429C428.7 434.7 471.3 435.3 514.2 438.5C557 441.7 600 447.3 642.8 449.7C685.7 452 728.3 451 771.2 442.7C814 434.3 857 418.7 878.5 410.8L900 403L900 601L878.5 601C857 601 814 601 771.2 601C728.3 601 685.7 601 642.8 601C600 601 557 601 514.2 601C471.3 601 428.7 601 385.8 601C343 601 300 601 257.2 601C214.3 601 171.7 601 128.8 601C86 601 43 601 21.5 601L0 601Z" fill="#f14e44"></path><path d="M0 487L21.5 488.8C43 490.7 86 494.3 128.8 497.3C171.7 500.3 214.3 502.7 257.2 492.8C300 483 343 461 385.8 453C428.7 445 471.3 451 514.2 458.2C557 465.3 600 473.7 642.8 473.2C685.7 472.7 728.3 463.3 771.2 460.2C814 457 857 460 878.5 461.5L900 463L900 601L878.5 601C857 601 814 601 771.2 601C728.3 601 685.7 601 642.8 601C600 601 557 601 514.2 601C471.3 601 428.7 601 385.8 601C343 601 300 601 257.2 601C214.3 601 171.7 601 128.8 601C86 601 43 601 21.5 601L0 601Z" fill="#e34139"></path><path d="M0 504L21.5 507.2C43 510.3 86 516.7 128.8 519C171.7 521.3 214.3 519.7 257.2 522.2C300 524.7 343 531.3 385.8 531.7C428.7 532 471.3 526 514.2 524.5C557 523 600 526 642.8 526.5C685.7 527 728.3 525 771.2 526C814 527 857 531 878.5 533L900 535L900 601L878.5 601C857 601 814 601 771.2 601C728.3 601 685.7 601 642.8 601C600 601 557 601 514.2 601C471.3 601 428.7 601 385.8 601C343 601 300 601 257.2 601C214.3 601 171.7 601 128.8 601C86 601 43 601 21.5 601L0 601Z" fill="#d5332e"></path><path d="M0 545L21.5 549.8C43 554.7 86 564.3 128.8 564.3C171.7 564.3 214.3 554.7 257.2 547.2C300 539.7 343 534.3 385.8 532C428.7 529.7 471.3 530.3 514.2 534.3C557 538.3 600 545.7 642.8 549.2C685.7 552.7 728.3 552.3 771.2 555.7C814 559 857 566 878.5 569.5L900 573L900 601L878.5 601C857 601 814 601 771.2 601C728.3 601 685.7 601 642.8 601C600 601 557 601 514.2 601C471.3 601 428.7 601 385.8 601C343 601 300 601 257.2 601C214.3 601 171.7 601 128.8 601C86 601 43 601 21.5 601L0 601Z" fill="#c72424"></path></svg>